<?xml version="1.0" encoding="utf-8"?>
<svg viewBox="0 0 500 500" xmlns="http://www.w3.org/2000/svg">
  <path fill="rgb(255,0,0)" stroke="rgb(255,0,0)" stroke-width="0" d="M 124.083 122.157 C 126.135 135.676 126.561 181.956 126.553 222.146 C 153.96 211.967 188.775 197.91 205.362 190.339 C 220.312 183.516 224.64 180.802 236.179 173.39 C 250.527 164.173 274.631 147.473 285.1 137.565 C 292.005 131.031 295.969 126.555 298.197 120.616 C 300.228 115.206 299.997 106.032 298.968 103.667 C 298.483 102.553 297.746 103.462 296.656 102.512 C 294.242 100.406 289.274 91.233 284.715 87.874 C 280.571 84.82 277.191 83.552 270.847 82.481 C 261.493 80.901 244.878 80.912 231.556 82.481 C 217.676 84.116 204.039 87.964 189.183 92.496 C 172.861 97.476 154.632 102.99 137.565 111.757 C 133.414 113.889 128.648 116.645 123.693 119.695 C 123.814 120.411 123.942 121.225 124.083 122.157 Z M 126.394 267.766 C 126.217 298.219 127.593 329.913 124.083 343.267 C 122.328 349.944 119.784 352.231 116.764 354.438 C 114.126 356.366 110.754 357.299 107.519 356.749 C 103.746 356.107 98.029 353.463 95.578 349.43 C 92.699 344.694 93.681 340.387 93.267 328.629 C 92.845 316.658 93.4 292.239 94.073 265.885 C 82.97 267.391 76.162 274.158 69.769 273.544 C 64.711 273.058 60.176 269.538 57.827 266.225 C 55.636 263.133 55.066 258.503 55.516 254.669 C 55.986 250.669 59.239 244.745 60.909 242.727 C 61.848 241.593 62.322 241.868 63.606 241.186 C 65.681 240.084 68.734 237.847 72.851 236.564 C 78.387 234.839 83.967 236.029 94.908 233.011 C 95.354 214.374 95.681 196.956 95.578 184.561 C 95.442 168.153 94.003 152.423 93.29 140.159 C 88.542 143.627 84.92 146.443 83.251 147.966 C 81.397 149.658 82.491 149.687 81.325 151.048 C 79.254 153.464 72.231 159.155 70.154 161.448 C 69.027 162.693 69.142 163.17 68.228 164.145 C 67.028 165.426 65.435 166.265 63.22 168.382 C 59.639 171.805 51.83 181.128 48.197 184.176 C 46.046 185.98 44.371 186.111 43.19 187.257 C 42.215 188.203 42.641 189.272 41.263 190.339 C 38.778 192.264 31.149 196.816 26.626 196.502 C 22.324 196.204 17.005 192.245 14.684 189.183 C 12.694 186.559 12.042 183.218 12.373 179.938 C 12.749 176.213 16.096 170.014 17.766 167.997 C 18.705 166.863 19.008 167.575 20.462 166.456 C 23.902 163.809 37.318 151.446 40.108 148.351 C 41.236 147.1 40.993 146.621 41.649 146.04 C 42.285 145.476 43.382 145.462 43.96 144.884 C 44.538 144.307 44.688 143.176 45.116 142.573 C 45.471 142.072 45.827 141.97 46.271 141.418 C 46.917 140.615 47.328 139.215 48.582 137.951 C 50.396 136.123 55.601 133.393 57.057 131.787 C 57.889 130.87 57.648 130.113 58.213 129.476 C 58.793 128.821 59.943 128.591 60.524 127.935 C 61.088 127.299 60.252 126.984 61.68 125.624 C 67.212 120.354 104.508 93.853 125.239 83.251 C 143.839 73.739 162.143 68.559 179.938 63.22 C 196.765 58.172 213.466 53.521 229.245 51.664 C 243.938 49.935 259.4 50.025 271.618 51.664 C 281.976 53.054 292.239 56.135 298.582 59.368 C 303.185 61.714 306.629 65.705 308.213 67.458 C 309.008 68.338 308.955 68.85 309.368 69.384 C 309.732 69.853 310.022 70.183 310.524 70.539 C 311.126 70.967 311.699 70.602 312.835 71.695 C 315.777 74.525 326.218 86.149 329.014 94.422 C 331.741 102.491 330.888 112.835 329.784 120.616 C 328.804 127.529 327.176 132.828 323.621 139.106 C 319.422 146.521 308.706 157.774 304.746 161.834 C 302.728 163.902 301.414 164.285 300.508 165.3 C 299.875 166.011 300.736 166.021 299.353 167.227 C 293.335 172.473 247.947 203.053 224.622 214.992 C 204.576 225.253 167.741 229.144 167.997 236.949 C 168.269 245.258 212.086 252.72 233.867 263.529 C 256.528 274.773 295.738 299.276 301.279 303.59 C 302.537 304.57 301.411 304.391 302.435 305.131 C 305.433 307.298 319.279 315.459 327.858 317.458 C 335.982 319.35 344.384 319.095 352.512 317.458 C 360.955 315.757 374.537 309.262 377.55 307.057 C 378.662 306.243 377.775 306.163 378.706 305.131 C 381.108 302.467 392.883 294.673 396.81 289.337 C 399.989 285.018 401.063 282.239 402.203 276.24 C 403.877 267.434 405.046 249.241 402.974 239.26 C 401.294 231.17 397.255 223.4 393.344 219.615 C 390.402 216.768 387.235 216.457 383.328 215.763 C 378.724 214.944 372.376 214.435 367.149 215.763 C 361.704 217.146 355.247 220.892 351.356 224.237 C 348.057 227.073 346.072 229.784 344.422 233.867 C 342.441 238.771 343.337 247.731 341.341 252.357 C 339.763 256.014 337.488 258.716 334.792 260.447 C 332.189 262.117 328.781 263.309 325.547 262.758 C 321.774 262.116 316.008 259.153 313.606 255.439 C 311.05 251.488 311.066 244.712 311.294 239.26 C 311.529 233.673 313.208 227.07 315.146 222.311 C 316.834 218.169 320.424 213.577 321.695 211.911 C 322.262 211.167 322.245 211.468 322.851 210.755 C 324.199 209.168 326.132 204.437 330.169 201.125 C 336.157 196.213 348.837 188.369 358.675 185.716 C 368.123 183.169 378.677 183.347 387.951 184.946 C 397.018 186.51 408.925 191.669 413.76 194.961 C 416.612 196.904 416.461 197.504 418.382 200.74 C 421.95 206.75 430.402 220.847 433.02 232.327 C 435.768 244.376 434.141 262.025 433.79 271.618 C 433.554 278.094 433.468 281.369 432.25 286.256 C 430.971 291.383 429.58 296.177 426.086 301.664 C 421.626 308.668 410.734 319.821 405.67 324.391 C 402.583 327.178 400.222 327.706 398.351 329.399 C 396.809 330.795 397.466 331.994 394.884 333.636 C 389.056 337.344 367.808 345.997 355.593 348.274 C 344.902 350.267 335.723 350.137 325.547 348.274 C 314.687 346.287 305.802 342.615 292.419 335.948 C 273.652 326.598 244.342 304.627 222.311 292.804 C 202.768 282.316 187.286 271.995 166.841 267.381 C 155.226 264.759 140.363 263.886 126.416 263.962 C 126.409 265.273 126.401 266.542 126.394 267.766 Z" style="fill: rgb(166, 209, 48); stroke: rgb(129, 151, 57); stroke-width: 2px;"/>
</svg>