<?xml version="1.0" encoding="utf-8"?>
<svg viewBox="0 0 500 500" xmlns="http://www.w3.org/2000/svg">
  <path fill="rgb(255,0,0)" stroke="rgb(255,0,0)" stroke-width="0" d="M 111.652 169.818 C 113.781 169.371 118.4 168.703 120.512 172.515 C 120.831 173.091 121.102 173.823 121.33 174.695 C 126.509 170.907 132.856 166.721 141.002 162.114 C 163.908 149.159 222.469 122.032 243.468 113.578 C 250.352 110.806 254.118 109.362 257.918 108.326 C 257.837 107.884 257.747 107.451 257.646 107.029 C 256.399 101.8 254.275 94.717 249.556 92.777 C 243.817 90.416 234.528 94.4 223.362 98.169 C 206.699 103.794 179.096 117.179 157.106 128.216 C 134.664 139.479 108.509 153.518 90.08 165.196 C 75.008 174.746 60.875 185.447 52.715 192.545 C 47.48 197.1 46.004 201.353 42.314 203.716 C 39.14 205.75 34.548 207.859 32.299 206.798 C 30.135 205.778 28.073 200.672 28.832 197.938 C 29.695 194.83 35.497 192.764 38.847 189.464 C 42.557 185.81 44.096 181.734 50.018 176.752 C 59.398 168.861 78.512 157.114 94.703 147.476 C 112.194 137.063 135.247 125.24 151.713 116.659 C 165.238 109.612 173.55 104.567 187.153 98.94 C 202.967 92.398 230.514 82.609 241.852 80.45 C 247.966 79.286 250.821 79.2 254.179 80.45 C 257.245 81.591 260.313 85.251 261.498 86.998 C 262.215 88.057 261.694 88.948 262.268 89.695 C 262.905 90.524 264.362 90.301 265.35 91.621 C 267.002 93.83 269.15 99.246 269.972 103.948 C 270.089 104.614 270.193 105.31 270.285 106.03 C 278.764 105.129 288.978 105.291 295.856 105.103 C 302.088 104.933 308.138 104.178 311.264 105.103 C 313.156 105.663 313.513 106.1 314.731 107.8 C 316.853 110.761 320.248 118.268 321.665 123.978 C 323.112 129.811 325.122 135.838 323.206 142.468 C 320.787 150.84 308.065 165.613 304.331 169.818 C 302.668 171.69 302.1 171.329 300.864 172.515 C 299.32 173.994 299.257 175.556 295.856 178.293 C 288.199 184.455 267.361 198.264 246.549 209.109 C 240.317 212.357 233.297 215.801 225.761 219.343 C 241.199 221.068 258.395 222.368 271.128 222.977 C 284.633 223.623 300.232 223.818 305.797 222.977 C 308.177 222.617 308.228 221.288 309.649 221.436 C 311.373 221.616 314.408 223.614 315.427 224.903 C 316.181 225.857 316.451 226.753 316.197 227.985 C 315.833 229.748 315.365 233.033 311.96 234.533 C 305.116 237.549 286.563 236.463 267.276 235.304 C 252.922 234.441 229.508 231.011 207.288 227.772 C 191.393 234.833 174.351 241.964 158.165 248.429 C 158.001 264.717 159.821 286.59 158.262 292.7 C 157.612 295.248 156.878 295.445 155.565 296.166 C 154.057 296.996 151.027 297.573 149.402 296.937 C 147.858 296.332 146.756 295.734 145.935 292.7 C 144.433 287.148 144.646 267.986 145.243 253.519 C 144.338 253.87 143.438 254.219 142.543 254.564 C 137.791 256.398 132.742 258.302 127.522 260.232 C 129.658 265.717 131.507 270.176 131.297 272.669 C 131.11 274.905 129.914 275.414 128.601 276.136 C 127.093 276.965 124.514 278.554 122.438 276.906 C 120.373 275.267 117.856 270.595 115.53 264.603 C 86.646 274.991 55.593 285.177 41.619 288.462 C 32.871 290.518 28.671 290.765 25.44 290.003 C 23.525 289.552 22.689 288.565 21.973 287.307 C 21.193 285.936 20.815 283.431 21.203 281.914 C 21.559 280.522 21.762 279.622 23.899 278.447 C 28.839 275.729 44.045 274.29 58.568 269.972 C 72.837 265.73 91.819 259.616 111.627 252.535 C 110.886 249.752 110.239 246.925 109.726 244.163 C 109.122 240.914 108.61 236.868 108.188 232.361 C 105.012 233.214 102.407 233.566 100.866 232.992 C 97.491 231.735 94.745 227.049 97.399 223.362 C 98.705 221.548 102.223 219.443 107.165 217.154 C 106.99 213.31 106.866 209.402 106.793 205.575 C 106.646 205.722 106.493 205.873 106.334 206.028 C 100.444 211.747 85.877 221.661 80.525 228.755 C 76.545 234.029 76.663 241.529 73.976 243.778 C 72.154 245.304 69.437 245.185 67.813 244.549 C 66.268 243.944 64.974 242.162 64.346 240.311 C 63.598 238.108 62.852 235.447 64.346 231.837 C 66.932 225.588 78.721 212.872 85.532 206.028 C 91.229 200.304 97.634 196.716 102.096 192.545 C 104.248 190.534 105.402 188.864 106.88 187.068 C 107.098 180.646 107.534 175.632 108.185 173.285 C 109 170.35 110.001 170.165 111.652 169.818 Z M 121.772 211.209 C 130.161 208.079 139.751 204.801 149.028 201.581 C 148.842 192.988 148.766 184.87 149.787 181.76 C 150.631 179.19 151.651 178.614 153.254 178.293 C 155.254 177.892 159.806 178.913 161.344 180.989 C 163.081 183.336 162.198 186.707 162.114 192.545 C 162.095 193.85 162.032 195.359 161.935 197.032 C 170.62 193.896 178.256 190.918 183.3 188.308 C 196.443 181.508 201.159 177.427 211.035 169.818 C 222.621 160.893 240.819 145.35 248.401 137.076 C 253.091 131.956 255.299 129.538 256.875 124.749 C 257.19 123.791 257.46 122.76 257.681 121.683 C 255.436 122.485 252.771 123.561 248.861 125.134 C 228.647 133.266 169.727 160.061 146.395 173.67 C 136.239 179.594 128.476 185.375 122.426 190.33 C 122.377 196.671 122.054 203.96 121.772 211.209 Z M 269.972 122.438 C 268.923 127.949 267.238 132.53 263.809 137.846 C 259.594 144.38 253.842 150.393 244.934 158.262 C 232.256 169.461 205.13 189.885 191.005 198.324 C 181.387 204.069 166.634 205.75 167.507 208.724 C 168.395 211.748 186.37 214.172 201.749 216.216 C 216.46 209.715 230.274 203.254 241.156 197.553 C 261.635 186.824 281.043 173.777 289.307 167.122 C 293.398 163.827 293.545 162.114 295.856 159.803 C 298.167 157.492 300.971 155.803 303.175 153.254 C 305.49 150.576 308.059 147.285 309.338 144.009 C 310.572 140.852 311.197 137.832 310.879 133.994 C 310.486 129.239 310.693 120.446 305.871 117.43 C 299.665 113.547 281.033 116.928 270.495 118.704 C 270.371 119.995 270.198 121.251 269.972 122.438 Z M 159.857 221.646 C 159.477 225.906 159.111 230.22 158.816 234.368 C 166.689 231.168 174.87 227.779 183.035 224.314 C 173.893 223.071 165.832 222.092 159.857 221.646 Z M 149.017 223.362 C 149.074 222.723 149.12 222.033 149.156 221.297 C 144.3 221.373 141.924 221.942 136.305 222.977 C 132.365 223.703 126.878 225.75 121.336 227.83 C 121.319 233.245 121.499 238.103 122.052 241.852 C 122.369 244.003 122.842 246.144 123.41 248.242 C 128.002 246.535 132.598 244.787 137.15 243.008 C 140.029 241.883 143.014 240.706 146.081 239.487 C 146.799 232.725 148.388 230.413 149.017 223.362 Z" style="fill: rgb(166, 209, 48); stroke: rgb(129, 151, 57); stroke-width: 2px;"/>
</svg>