<?xml version="1.0" encoding="utf-8"?>
<svg viewBox="0 0 500 500" xmlns="http://www.w3.org/2000/svg" xmlns:xlink="http://www.w3.org/1999/xlink">
  <defs>
    <path id="path-0" d="M 10.786 43.143 C 19.774 42.373 24.14 42.373 28.505 42.373 C 32.871 42.373 36.466 42.373 40.062 42.373 C 45.65 42.373 49.356 42.389 53.929 43.914 C 60.489 43.914 66.495 44.684 72.419 44.684 C 79.341 44.684 83.44 42.373 88.598 42.373 C 92.503 40.008 102.998 41.602 106.317 41.602 C 113.234 41.602 117.628 40.062 123.267 40.062 C 129.687 40.062 133.796 40.062 137.904 40.062 C 145.352 40.062 150.488 40.062 155.624 40.062 C 167.766 40.832 175.005 46.225 183.359 46.225 C 193.354 46.995 202.914 48.536 211.864 48.536 C 218.413 48.536 228.566 47.243 231.125 44.684 C 238.036 43.914 245.021 42.373 251.156 42.373 C 258.86 41.602 265.023 41.602 271.186 41.602 C 277.607 41.602 283.256 41.602 288.906 41.602 C 294.813 41.602 299.178 41.602 303.544 41.602 C 309.194 41.602 313.303 41.602 317.411 41.602 C 324.071 41.602 329.706 40.816 334.361 43.143 C 337.349 44.252 346.068 45.455 348.228 45.455 C 353.107 45.455 357.216 45.455 361.325 45.455 C 365.691 45.455 369.286 45.455 372.881 45.455 C 378.788 45.455 383.924 45.455 389.06 45.455 C 394.023 45.455 398.385 42.373 402.157 42.373 C 408.272 42.373 411.924 41.602 416.025 41.602 C 426.554 41.602 435.542 41.602 444.53 41.602 C 448.4 41.602 456.158 42.794 458.398 43.914 C 465.41 43.914 464.699 50.985 467.643 53.929 C 470.844 60.333 472.265 65.062 472.265 70.878 C 475.152 78.193 474.393 81.016 469.954 83.975 C 467.244 87.456 458.518 96.302 456.086 96.302 C 451.405 100.983 445.189 105.603 440.678 107.858 C 437.498 110.268 430.812 110.94 428.351 110.94 C 421.418 110.94 416.795 110.94 412.173 110.94 C 406.523 110.94 401.644 110.94 396.764 110.94 C 391.628 110.94 387.262 110.94 382.897 110.94 C 375.143 110.94 371.926 106.317 367.488 106.317 C 359.626 106.317 357.218 103.236 352.08 103.236 C 344.995 103.236 338.829 102.465 332.82 102.465 C 326.975 102.465 323.849 104.777 319.723 104.777 C 316.788 106.941 310.499 106.317 307.396 106.317 C 303.58 106.317 299.366 110.169 295.84 110.169 C 289.396 110.94 287.147 114.792 282.743 114.792 C 277.711 115.562 274.073 121.921 271.186 124.807 C 268.14 128.589 264.253 133.479 264.253 137.134 C 263.482 143.218 261.941 145.603 261.941 149.461 C 261.941 156.17 263.215 160.616 266.564 165.639 C 273.002 172.078 279.471 177.005 285.054 182.589 C 291.066 184.129 299.603 190.204 303.544 194.145 C 308.284 194.915 313.034 203.635 315.871 206.471 C 318.767 209.368 325.886 217.374 325.886 220.339 C 326.656 227.514 332.049 232.278 332.049 238.829 C 332.049 243.965 332.049 247.56 332.049 251.156 C 332.049 256.292 332.049 259.887 332.049 263.482 C 332.049 267.848 332.049 271.443 332.049 275.039 C 331.279 284.284 331.279 291.217 331.279 298.151 C 331.279 304.512 335.639 310.986 338.983 314.33 C 344.82 320.167 347.749 325.407 352.851 330.508 C 356.907 336.311 361.864 340.061 364.407 345.146 C 367.936 352.205 370.89 357.343 373.652 362.866 C 377.716 367.701 385.208 377.043 385.208 381.356 C 385.208 387.519 385.208 392.142 385.208 396.764 C 385.208 401.285 384.438 404.753 384.438 408.32 C 384.438 413.713 384.438 417.565 384.438 421.418 C 383.667 427.324 383.667 432.46 383.667 437.596 C 383.667 442.219 383.667 446.071 383.667 449.923 L 383.667 452.234 C 385.455 455.363 388.213 459.014 389.831 462.25" style="fill: none;"/>
  </defs>
  <text style="fill: rgb(51, 51, 51); font-family: Arial, sans-serif; font-size: 28px; white-space: pre;"><textPath xlink:href="#path-0">Hi, my name is Ryan Parker. I'm a software developer. I swear I know what I'm doing. </textPath></text>
</svg>